<svg width="295" height="221" viewBox="0 0 295 221" fill="none" xmlns="http://www.w3.org/2000/svg">
<path d="M98.4484 3.91736L156.158 3.91736L132.994 67.6557C92.222 74.71 61.0379 113.549 61.0379 160.404C61.0379 181.541 67.3843 201.047 78.0934 216.74H1.46436L71.5181 23.9847C75.9226 11.8647 86.5881 3.91736 98.4484 3.91736Z" fill="#FFDBD7"/>
<path d="M156.157 3.91736L139.877 48.7125L134.971 3.91736L156.157 3.91736Z" fill="black" fill-opacity="0.3"/>
<path d="M192.681 3.91736L134.971 3.91736L158.038 67.3867C199.621 73.6599 231.655 112.915 231.655 160.404C231.655 181.541 225.309 201.047 214.599 216.74H289.665L219.611 23.9847C215.207 11.8647 204.541 3.91736 192.681 3.91736Z" fill="#ED5544"/>
<path d="M88.1561 210.605C78.2941 196.777 72.4133 179.347 72.4133 160.404C72.4133 115.462 105.515 79.0308 146.347 79.0308C187.181 79.0308 220.282 115.462 220.282 160.404C220.282 179.347 214.401 196.777 204.539 210.605C188.35 198.738 168.195 191.701 146.347 191.701C124.501 191.701 104.346 198.738 88.1561 210.605Z" fill="#ED5544"/>
</svg>
