<svg width="40" height="30" viewBox="0 0 40 30" fill="none" xmlns="http://www.w3.org/2000/svg">
<g clip-path="url(#clip0_19_451)">
<path d="M13.3489 0.531738H21.174L18.033 9.184C12.5047 10.1416 8.27632 15.4139 8.27632 21.7743C8.27632 24.6436 9.13684 27.2915 10.5889 29.4217H0.198547L9.69736 3.25581C10.2946 1.61056 11.7408 0.531738 13.3489 0.531738Z" fill="#FFDBD7"/>
<path d="M21.1738 0.531738L18.9663 6.61253L18.3012 0.531738H21.1738Z" fill="black" fill-opacity="0.3"/>
<path d="M26.1263 0.531738H18.3012L21.4289 9.14748C27.0673 9.99905 31.4109 15.3277 31.4109 21.7743C31.4109 24.6436 30.5503 27.2915 29.0983 29.4217H39.2766L29.7778 3.25582C29.1806 1.61056 27.7344 0.531738 26.1263 0.531738Z" fill="#ED5544"/>
<path d="M11.9534 28.5889C10.6162 26.7118 9.81879 24.3457 9.81879 21.7742C9.81879 15.6736 14.3071 10.7281 19.8437 10.7281C25.3804 10.7281 29.8688 15.6736 29.8688 21.7742C29.8688 24.3457 29.0714 26.7118 27.7342 28.5889C25.539 26.978 22.8061 26.0228 19.8437 26.0228C16.8815 26.0228 14.1486 26.978 11.9534 28.5889Z" fill="#ED5544"/>
</g>
<defs>
<clipPath id="clip0_19_451">
<rect width="40" height="30" fill="white"/>
</clipPath>
</defs>
</svg>
